<svg width="94" height="94" viewBox="0 0 94 94" fill="none" xmlns="http://www.w3.org/2000/svg">
<path opacity="0.3" d="M27.4837 40.8906C25.1509 33.5546 31.6344 26.4443 39.154 28.0921L61.1488 32.9118C68.6684 34.5596 71.5843 43.7297 66.3975 49.4179L51.2261 66.0561C46.0393 71.7443 36.6398 69.6846 34.307 62.3486L27.4837 40.8906Z" fill="#ABDCDF"/>
<g clip-path="url(#clip0_891_46)">
<path d="M43.6465 32.0882C43.6827 31.9705 43.6953 31.8468 43.6837 31.7242C43.6721 31.6016 43.6365 31.4825 43.5789 31.3737C43.5212 31.2649 43.4427 31.1685 43.3478 31.09C43.2529 31.0115 43.1435 30.9525 43.0258 30.9163C42.9081 30.8801 42.7845 30.8674 42.6619 30.879C42.5393 30.8906 42.4202 30.9263 42.3114 30.9839C42.2025 31.0415 42.1061 31.12 42.0277 31.2149C41.9492 31.3098 41.8902 31.4192 41.854 31.5369L34.354 55.9119C34.2809 56.1496 34.3052 56.4066 34.4216 56.6264C34.538 56.8462 34.7369 57.0107 34.9746 57.0838C35.2123 57.1569 35.4693 57.1326 35.6891 57.0162C35.9088 56.8998 36.0734 56.7009 36.1465 56.4632L43.6465 32.0882ZM33.1015 36.7738C33.1888 36.8609 33.258 36.9643 33.3053 37.0782C33.3526 37.1921 33.3769 37.3142 33.3769 37.4376C33.3769 37.5609 33.3526 37.683 33.3053 37.7969C33.258 37.9108 33.1888 38.0142 33.1015 38.1013L27.2008 44.0001L33.1015 49.8988C33.2775 50.0748 33.3764 50.3136 33.3764 50.5626C33.3764 50.8115 33.2775 51.0503 33.1015 51.2263C32.9254 51.4023 32.6867 51.5012 32.4377 51.5012C32.1888 51.5012 31.95 51.4023 31.774 51.2263L25.2115 44.6638C25.1242 44.5767 25.0549 44.4733 25.0076 44.3594C24.9604 44.2455 24.936 44.1234 24.936 44.0001C24.936 43.8767 24.9604 43.7546 25.0076 43.6407C25.0549 43.5268 25.1242 43.4234 25.2115 43.3363L31.774 36.7738C31.861 36.6865 31.9645 36.6172 32.0784 36.57C32.1923 36.5227 32.3144 36.4984 32.4377 36.4984C32.561 36.4984 32.6831 36.5227 32.797 36.57C32.9109 36.6172 33.0144 36.6865 33.1015 36.7738ZM44.899 36.7738C44.8117 36.8609 44.7424 36.9643 44.6951 37.0782C44.6479 37.1921 44.6235 37.3142 44.6235 37.4376C44.6235 37.5609 44.6479 37.683 44.6951 37.7969C44.7424 37.9108 44.8117 38.0142 44.899 38.1013L50.7996 44.0001L44.899 49.8988C44.8118 49.986 44.7427 50.0894 44.6955 50.2033C44.6483 50.3172 44.624 50.4393 44.624 50.5626C44.624 50.6858 44.6483 50.8079 44.6955 50.9218C44.7427 51.0357 44.8118 51.1391 44.899 51.2263C44.9861 51.3135 45.0896 51.3826 45.2035 51.4298C45.3174 51.477 45.4394 51.5012 45.5627 51.5012C45.686 51.5012 45.808 51.477 45.9219 51.4298C46.0358 51.3826 46.1393 51.3135 46.2265 51.2263L52.789 44.6638C52.8763 44.5767 52.9455 44.4733 52.9928 44.3594C53.0401 44.2455 53.0644 44.1234 53.0644 44.0001C53.0644 43.8767 53.0401 43.7546 52.9928 43.6407C52.9455 43.5268 52.8763 43.4234 52.789 43.3363L46.2265 36.7738C46.1394 36.6865 46.0359 36.6172 45.922 36.57C45.8081 36.5227 45.686 36.4984 45.5627 36.4984C45.4394 36.4984 45.3173 36.5227 45.2034 36.57C45.0895 36.6172 44.986 36.6865 44.899 36.7738Z" fill="#7DFF9A"/>
</g>
<defs>
<clipPath id="clip0_891_46">
<rect width="30" height="28" fill="white" transform="translate(24 30.0001)"/>
</clipPath>
</defs>
</svg>
