<svg width="94" height="94" viewBox="0 0 94 94" fill="none" xmlns="http://www.w3.org/2000/svg">
<path opacity="0.3" d="M27.4837 40.8906C25.1509 33.5546 31.6344 26.4443 39.154 28.0921L61.1488 32.9118C68.6684 34.5596 71.5843 43.7297 66.3975 49.4179L51.2261 66.0561C46.0393 71.7443 36.6398 69.6846 34.307 62.3486L27.4837 40.8906Z" fill="#ABDCDF"/>
<g clip-path="url(#clip0_891_44)">
<path d="M40 34.7501C40.2486 34.7501 40.4871 34.8488 40.6629 35.0246C40.8387 35.2005 40.9375 35.4389 40.9375 35.6876V38.5001C40.9375 38.7487 40.8387 38.9872 40.6629 39.163C40.4871 39.3388 40.2486 39.4376 40 39.4376C39.7514 39.4376 39.5129 39.3388 39.3371 39.163C39.1613 38.9872 39.0625 38.7487 39.0625 38.5001V35.6876C39.0625 35.4389 39.1613 35.2005 39.3371 35.0246C39.5129 34.8488 39.7514 34.7501 40 34.7501ZM31.9975 37.9976C32.1733 37.8218 32.4117 37.7231 32.6603 37.7231C32.9089 37.7231 33.1473 37.8218 33.3231 37.9976L35.0388 39.7113C35.2148 39.8873 35.3137 40.1261 35.3137 40.3751C35.3137 40.624 35.2148 40.8628 35.0388 41.0388C34.8627 41.2148 34.624 41.3137 34.375 41.3137C34.126 41.3137 33.8873 41.2148 33.7112 41.0388L31.9975 39.3232C31.8217 39.1474 31.723 38.909 31.723 38.6604C31.723 38.4118 31.8217 38.1734 31.9975 37.9976ZM28.75 46.0001C28.75 45.7514 28.8488 45.513 29.0246 45.3371C29.2004 45.1613 29.4389 45.0626 29.6875 45.0626H32.6612C32.9099 45.0626 33.1483 45.1613 33.3242 45.3371C33.5 45.513 33.5988 45.7514 33.5988 46.0001C33.5988 46.2487 33.5 46.4872 33.3242 46.663C33.1483 46.8388 32.9099 46.9376 32.6612 46.9376H29.6875C29.4389 46.9376 29.2004 46.8388 29.0246 46.663C28.8488 46.4872 28.75 46.2487 28.75 46.0001ZM46.5625 46.0001C46.5625 45.7514 46.6613 45.513 46.8371 45.3371C47.0129 45.1613 47.2514 45.0626 47.5 45.0626H50.3125C50.5611 45.0626 50.7996 45.1613 50.9754 45.3371C51.1512 45.513 51.25 45.7514 51.25 46.0001C51.25 46.2487 51.1512 46.4872 50.9754 46.663C50.7996 46.8388 50.5611 46.9376 50.3125 46.9376H47.5C47.2514 46.9376 47.0129 46.8388 46.8371 46.663C46.6613 46.4872 46.5625 46.2487 46.5625 46.0001ZM47.9762 38.0388C47.8464 37.9096 47.6726 37.834 47.4895 37.8271C47.3064 37.8201 47.1274 37.8823 46.9881 38.0013L39.1506 44.7063C38.9701 44.8609 38.8239 45.0514 38.7212 45.2658C38.6186 45.4801 38.562 45.7136 38.5548 45.9511C38.5477 46.1886 38.5902 46.4251 38.6797 46.6452C38.7693 46.8653 38.9038 47.0643 39.0747 47.2295C39.2456 47.3946 39.4491 47.5222 39.6722 47.6041C39.8953 47.686 40.133 47.7205 40.3702 47.7052C40.6073 47.6898 40.8386 47.6252 41.0494 47.5153C41.2601 47.4054 41.4455 47.2527 41.5938 47.0669L48.0325 39.0101C48.1445 38.8698 48.2009 38.6932 48.1909 38.514C48.1808 38.3349 48.1051 38.1657 47.9781 38.0388H47.9762Z" fill="#7DFF9A"/>
<path fill-rule="evenodd" clip-rule="evenodd" d="M37.4951 60.792C35.5524 60.463 33.6936 59.7546 32.0248 58.7073C30.3559 57.66 28.9097 56.2942 27.7687 54.6879C25.4642 51.444 24.5429 47.4174 25.2072 43.4941C25.8716 39.5708 28.0673 36.0722 31.3113 33.7677C34.5552 31.4633 38.5818 30.542 42.5051 31.2063C46.4286 31.8707 49.9275 34.0665 52.2321 37.3106C54.5367 40.5548 55.4582 44.5815 54.7938 48.5051C54.1294 52.4286 51.9337 55.9276 48.6895 58.2321C45.4454 60.5367 41.4186 61.4582 37.4951 60.7938V60.792ZM28.7482 52.7613C32.1676 50.7828 36.0495 49.7439 40.0001 49.7501C44.0988 49.7501 47.9426 50.847 51.2519 52.7613C52.448 50.7698 53.094 48.4965 53.124 46.1736C53.154 43.8507 52.5669 41.5614 51.4227 39.5397C50.2786 37.5179 48.6183 35.836 46.6114 34.6658C44.6046 33.4956 42.3231 32.879 40.0001 32.879C37.677 32.879 35.3955 33.4956 33.3887 34.6658C31.3818 35.836 29.7216 37.5179 28.5774 39.5397C27.4332 41.5614 26.8461 43.8507 26.8762 46.1736C26.9062 48.4965 27.5522 50.7698 28.7482 52.7613Z" fill="#7DFF9A"/>
</g>
<defs>
<clipPath id="clip0_891_44">
<rect width="30" height="30" fill="white" transform="translate(25 31.0001)"/>
</clipPath>
</defs>
</svg>
