<svg width="94" height="94" viewBox="0 0 94 94" fill="none" xmlns="http://www.w3.org/2000/svg">
<path opacity="0.3" d="M27.4837 40.8906C25.1509 33.5546 31.6344 26.4443 39.154 28.0921L61.1488 32.9118C68.6684 34.5596 71.5843 43.7297 66.3975 49.4179L51.2261 66.0561C46.0393 71.7443 36.6398 69.6846 34.307 62.3486L27.4837 40.8906Z" fill="#ABDCDF"/>
<g clip-path="url(#clip0_891_45)">
<path fill-rule="evenodd" clip-rule="evenodd" d="M25 47.6876C25 46.9416 25.2963 46.2263 25.8238 45.6988C26.3512 45.1714 27.0666 44.8751 27.8125 44.8751H29.6875C30.4334 44.8751 31.1488 45.1714 31.6762 45.6988C32.2037 46.2263 32.5 46.9416 32.5 47.6876V49.5626C32.5 50.3085 32.2037 51.0239 31.6762 51.5513C31.1488 52.0787 30.4334 52.3751 29.6875 52.3751H27.8125C27.0666 52.3751 26.3512 52.0787 25.8238 51.5513C25.2963 51.0239 25 50.3085 25 49.5626V47.6876ZM27.8125 46.7501C27.5639 46.7501 27.3254 46.8488 27.1496 47.0246C26.9738 47.2005 26.875 47.4389 26.875 47.6876V49.5626C26.875 49.8112 26.9738 50.0497 27.1496 50.2255C27.3254 50.4013 27.5639 50.5001 27.8125 50.5001H29.6875C29.9361 50.5001 30.1746 50.4013 30.3504 50.2255C30.5262 50.0497 30.625 49.8112 30.625 49.5626V47.6876C30.625 47.4389 30.5262 47.2005 30.3504 47.0246C30.1746 46.8488 29.9361 46.7501 29.6875 46.7501H27.8125ZM47.5 47.6876C47.5 46.9416 47.7963 46.2263 48.3238 45.6988C48.8512 45.1714 49.5666 44.8751 50.3125 44.8751H52.1875C52.9334 44.8751 53.6488 45.1714 54.1762 45.6988C54.7037 46.2263 55 46.9416 55 47.6876V49.5626C55 50.3085 54.7037 51.0239 54.1762 51.5513C53.6488 52.0787 52.9334 52.3751 52.1875 52.3751H50.3125C49.5666 52.3751 48.8512 52.0787 48.3238 51.5513C47.7963 51.0239 47.5 50.3085 47.5 49.5626V47.6876ZM50.3125 46.7501C50.0639 46.7501 49.8254 46.8488 49.6496 47.0246C49.4738 47.2005 49.375 47.4389 49.375 47.6876V49.5626C49.375 49.8112 49.4738 50.0497 49.6496 50.2255C49.8254 50.4013 50.0639 50.5001 50.3125 50.5001H52.1875C52.4361 50.5001 52.6746 50.4013 52.8504 50.2255C53.0262 50.0497 53.125 49.8112 53.125 49.5626V47.6876C53.125 47.4389 53.0262 47.2005 52.8504 47.0246C52.6746 46.8488 52.4361 46.7501 52.1875 46.7501H50.3125ZM36.25 36.4376C36.25 35.6916 36.5463 34.9763 37.0738 34.4488C37.6012 33.9214 38.3166 33.6251 39.0625 33.6251H40.9375C41.6834 33.6251 42.3988 33.9214 42.9262 34.4488C43.4537 34.9763 43.75 35.6916 43.75 36.4376V38.3126C43.75 39.0585 43.4537 39.7739 42.9262 40.3013C42.3988 40.8287 41.6834 41.1251 40.9375 41.1251H39.0625C38.3166 41.1251 37.6012 40.8287 37.0738 40.3013C36.5463 39.7739 36.25 39.0585 36.25 38.3126V36.4376ZM39.0625 35.5001C38.8139 35.5001 38.5754 35.5988 38.3996 35.7746C38.2238 35.9505 38.125 36.1889 38.125 36.4376V38.3126C38.125 38.5612 38.2238 38.7997 38.3996 38.9755C38.5754 39.1513 38.8139 39.2501 39.0625 39.2501H40.9375C41.1861 39.2501 41.4246 39.1513 41.6004 38.9755C41.7762 38.7997 41.875 38.5612 41.875 38.3126V36.4376C41.875 36.1889 41.7762 35.9505 41.6004 35.7746C41.4246 35.5988 41.1861 35.5001 40.9375 35.5001H39.0625Z" fill="#7DFF9A"/>
<path d="M36.25 36.4376H28.4988C28.2924 36.0801 27.9739 35.8007 27.5925 35.6428C27.2112 35.4848 26.7884 35.4571 26.3897 35.564C25.991 35.6708 25.6387 35.9062 25.3875 36.2336C25.1362 36.5611 25 36.9623 25 37.3751C25 37.7878 25.1362 38.189 25.3875 38.5165C25.6387 38.8439 25.991 39.0793 26.3897 39.1862C26.7884 39.293 27.2112 39.2653 27.5925 39.1073C27.9739 38.9494 28.2924 38.67 28.4988 38.3126H33.5013C31.0867 39.837 29.2823 42.1589 28.4013 44.8751H29.6875C29.9182 44.8751 30.145 44.9032 30.3588 44.9557C30.8781 43.5962 31.6785 42.3616 32.7075 41.3325C33.7366 40.3035 34.9712 39.5031 36.3307 38.9838C36.277 38.7641 36.2499 38.5387 36.25 38.3126V36.4376ZM43.6694 38.9838C43.7232 38.7641 43.7503 38.5387 43.75 38.3126V36.4376H51.5013C51.7077 36.0801 52.0262 35.8007 52.4076 35.6428C52.7889 35.4848 53.2117 35.4571 53.6104 35.564C54.0091 35.6708 54.3614 35.9062 54.6126 36.2336C54.8639 36.5611 55.0001 36.9623 55.0001 37.3751C55.0001 37.7878 54.8639 38.189 54.6126 38.5165C54.3614 38.8439 54.0091 39.0793 53.6104 39.1862C53.2117 39.293 52.7889 39.2653 52.4076 39.1073C52.0262 38.9494 51.7077 38.67 51.5013 38.3126H46.4988C48.9134 39.837 50.7178 42.1589 51.5988 44.8751H50.3125C50.0819 44.8751 49.8569 44.9032 49.6413 44.9557C49.122 43.5962 48.3216 42.3616 47.2926 41.3325C46.2635 40.3035 45.0289 39.5031 43.6694 38.9838V38.9838Z" fill="#7DFF9A"/>
</g>
<defs>
<clipPath id="clip0_891_45">
<rect width="30.0001" height="20" fill="white" transform="translate(25 33.0001)"/>
</clipPath>
</defs>
</svg>
