<svg width="159" height="42" viewBox="0 0 159 42" fill="none" xmlns="http://www.w3.org/2000/svg">
<path d="M147.925 30.904V15.0405C147.1 15.2103 146.19 15.3437 145.196 15.4407C144.226 15.5135 143.195 15.5499 142.103 15.5499C141.376 15.5499 140.624 15.5135 139.847 15.4407V16.2048C140.672 16.2048 141.242 16.4716 141.557 17.0052C141.873 17.5146 142.03 18.3151 142.03 19.4066V30.904C142.03 31.9228 141.861 32.6141 141.521 32.9779C141.206 33.3418 140.648 33.5237 139.847 33.5237V34.2878C140.357 34.2635 141.109 34.2393 142.103 34.215C143.122 34.1665 144.116 34.1422 145.087 34.1422C146.057 34.1422 147.015 34.1665 147.961 34.215C148.907 34.2393 149.623 34.2635 150.108 34.2878V33.5237C149.307 33.5237 148.737 33.3418 148.398 32.9779C148.082 32.6141 147.925 31.9228 147.925 30.904Z" fill="#7DFF9A"/>
<path d="M62.3961 17.9876V5.83527C61.5714 6.00506 60.6739 6.13847 59.7036 6.23549C58.7334 6.30826 57.6904 6.34465 56.5746 6.34465C55.8469 6.34465 55.095 6.30826 54.3188 6.23549V6.99956C55.1677 6.99956 55.7377 7.26638 56.0288 7.80002C56.3441 8.3094 56.5018 9.10985 56.5018 10.2014V30.904C56.5018 31.9228 56.332 32.6141 55.9924 32.9779C55.6771 33.3418 55.1192 33.5237 54.3188 33.5237V34.2878C54.8281 34.2635 55.5801 34.2393 56.5746 34.215C57.5933 34.1665 58.5878 34.1422 59.5581 34.1422C60.4798 34.1422 61.3773 34.1665 62.2505 34.215C63.1238 34.2393 63.7787 34.2635 64.2153 34.2878V33.5237C63.5604 33.5237 63.0874 33.3418 62.7963 32.9779C62.5295 32.6141 62.3961 31.9228 62.3961 30.904V20.0979C62.3961 19.4187 62.5416 18.8245 62.8327 18.3151C63.1237 17.7814 63.4997 17.3812 63.9606 17.1144C64.4457 16.8233 64.9672 16.6778 65.5251 16.6778C66.0587 16.6778 66.459 16.7869 66.7258 17.0052C67.0169 17.1993 67.223 17.5025 67.3443 17.9149C67.4656 18.303 67.5262 18.7759 67.5262 19.3338V30.904C67.5262 31.9228 67.3928 32.6141 67.126 32.9779C66.8592 33.3418 66.3862 33.5237 65.707 33.5237V34.2878C66.1922 34.2635 66.8956 34.2393 67.8173 34.215C68.7391 34.1665 69.685 34.1422 70.6553 34.1422C71.577 34.1422 72.5109 34.1665 73.4569 34.215C74.4271 34.2393 75.1427 34.2635 75.6036 34.2878V33.5237C74.8031 33.5237 74.2331 33.3418 73.8935 32.9779C73.5782 32.6141 73.4205 31.9228 73.4205 30.904V21.0803C73.4205 19.8432 73.3356 18.8608 73.1658 18.1332C72.996 17.4055 72.7171 16.8112 72.329 16.3503C71.9894 15.938 71.4921 15.5984 70.8372 15.3316C70.2066 15.0648 69.3576 14.9313 68.2903 14.9313C66.9805 14.9313 65.8162 15.1618 64.7974 15.6226C63.8029 16.0835 63.0025 16.8718 62.3961 17.9876Z" fill="#7DFF9A"/>
<path d="M37.5291 8.52771V9.25539C36.9955 9.49795 36.4255 9.97095 35.8191 10.6744C35.2127 11.3778 34.6911 12.4693 34.2545 13.949L27.9601 34.3242C27.7175 34.2999 27.4628 34.2878 27.196 34.2878C26.9292 34.2635 26.6502 34.2514 26.3591 34.2514C26.1166 34.2514 25.8498 34.2635 25.5587 34.2878C25.2919 34.2878 25.0372 34.2999 24.7946 34.3242L19.7557 18.9915L14.4979 34.3242C14.2553 34.2999 13.9885 34.2878 13.6974 34.2878C13.4306 34.2635 13.1638 34.2514 12.897 34.2514C12.6301 34.2514 12.3633 34.2635 12.0965 34.2878C11.8297 34.2878 11.575 34.2999 11.3324 34.3242L3.03682 11.584C2.72149 10.7108 2.35765 10.1165 1.9453 9.80115C1.53294 9.46157 1.15697 9.27965 0.817383 9.25539V8.52771C1.59358 8.55196 2.52744 8.57622 3.61897 8.60047C4.7105 8.62473 5.75352 8.63686 6.74802 8.63686C7.74252 8.63686 8.64 8.62473 9.44046 8.60047C10.2409 8.57622 10.8958 8.55196 11.4052 8.52771V9.25539C10.9443 9.32816 10.629 9.52221 10.4592 9.83754C10.2894 10.1529 10.2288 10.541 10.2773 11.0018C10.3501 11.4385 10.4592 11.8751 10.6048 12.3117L15.8625 27.458L19.3304 17.6974L17.1539 11.0746C16.9356 10.3954 16.6567 9.93456 16.3171 9.692C16.0018 9.42518 15.6379 9.27965 15.2256 9.25539V8.52771C15.9775 8.55196 16.8629 8.57622 17.8816 8.60047C18.9004 8.62473 19.9313 8.63686 20.9743 8.63686C22.0658 8.63686 23.0967 8.62473 24.0669 8.60047C25.0372 8.57622 25.8255 8.55196 26.4319 8.52771V9.25539C25.68 9.27965 25.0978 9.36454 24.6855 9.51008C24.2731 9.65562 24.0306 9.94669 23.9578 10.3833C23.9093 10.7957 24.0306 11.4385 24.3216 12.3117L29.1934 27.2074L32.3262 17.2236C32.9568 15.2345 33.26 13.67 33.2358 12.53C33.2115 11.3657 32.9204 10.541 32.3626 10.0558C31.8289 9.54646 31.0648 9.27965 30.0703 9.25539V8.52771C30.9678 8.55196 31.7683 8.57622 32.4717 8.60047C33.1994 8.62473 33.9513 8.63686 34.7275 8.63686C35.2369 8.63686 35.7342 8.62473 36.2193 8.60047C36.7287 8.57622 37.1653 8.55196 37.5291 8.52771Z" fill="#7DFF9A"/>
<path fill-rule="evenodd" clip-rule="evenodd" d="M40.3685 34.5425C39.2527 34.5425 38.331 34.3363 37.6033 33.9239C36.8756 33.4873 36.342 32.9173 36.0024 32.2139C35.6628 31.5104 35.493 30.7585 35.493 29.958C35.493 28.9393 35.7235 28.1024 36.1843 27.4475C36.6694 26.7926 37.288 26.2711 38.0399 25.883C38.7919 25.4706 39.5802 25.1311 40.4049 24.8642C41.2296 24.5974 42.0179 24.3427 42.7699 24.1002C43.5218 23.8334 44.1282 23.5302 44.5891 23.1906C45.05 22.8267 45.2804 22.3659 45.2804 21.808V18.7881C45.2804 18.2544 45.1955 17.7572 45.0257 17.2963C44.8802 16.8112 44.6012 16.4231 44.1889 16.132C43.8008 15.8167 43.255 15.659 42.5516 15.659C42.115 15.659 41.6905 15.7197 41.2781 15.8409C40.8658 15.9622 40.5019 16.1563 40.1866 16.4231C40.9628 16.6899 41.5328 17.0901 41.8967 17.6238C42.2848 18.1574 42.4788 18.7517 42.4788 19.4066C42.4788 20.3041 42.1635 21.0196 41.5328 21.5533C40.9264 22.0627 40.1987 22.3173 39.3498 22.3173C38.428 22.3173 37.7125 22.0263 37.2031 21.4441C36.718 20.862 36.4754 20.1586 36.4754 19.3338C36.4754 18.6062 36.6573 17.9998 37.0212 17.5146C37.385 17.0052 37.9186 16.5444 38.6221 16.132C39.3255 15.7197 40.1745 15.4165 41.169 15.2224C42.1635 15.0284 43.2186 14.9313 44.3344 14.9313C45.4744 14.9313 46.5175 15.0526 47.4634 15.2952C48.4337 15.5135 49.2584 15.9622 49.9376 16.6414C50.4712 17.1993 50.8108 17.8785 50.9563 18.6789C51.1019 19.4794 51.1746 20.4981 51.1746 21.7352V31.5589C51.1746 32.1654 51.2232 32.5898 51.3202 32.8324C51.4415 33.0507 51.6234 33.1599 51.8659 33.1599C52.0842 33.1599 52.2904 33.0992 52.4845 32.9779C52.6785 32.8567 52.8726 32.7232 53.0666 32.5777L53.4669 33.1962C52.9332 33.6329 52.3026 33.9724 51.5749 34.215C50.8472 34.4333 50.0589 34.5425 49.2099 34.5425C48.2396 34.5425 47.4756 34.4212 46.9177 34.1786C46.384 33.9118 45.9959 33.5601 45.7534 33.1235C45.5351 32.6869 45.4138 32.2017 45.3895 31.6681C44.8559 32.5413 44.1889 33.2448 43.3884 33.7784C42.588 34.2878 41.5813 34.5425 40.3685 34.5425ZM43.3884 31.9228C43.7765 31.9228 44.1161 31.85 44.4072 31.7045C44.7225 31.5347 45.0136 31.2557 45.2804 30.8676V23.2997C45.0863 23.6393 44.8195 23.9668 44.4799 24.2821C44.1646 24.5732 43.825 24.8764 43.4612 25.1917C43.0973 25.4828 42.7456 25.8102 42.406 26.1741C42.0907 26.5379 41.8239 26.9745 41.6056 27.4839C41.4115 27.969 41.3145 28.5633 41.3145 29.2667C41.3145 30.2127 41.5086 30.8919 41.8967 31.3043C42.2848 31.7166 42.782 31.9228 43.3884 31.9228Z" fill="#7DFF9A"/>
<path d="M94.5413 15.4407V16.2048C94.0804 16.3503 93.6317 16.6535 93.1951 17.1144C92.7827 17.5753 92.3825 18.3757 91.9944 19.5158L87.1553 33.4873L85.6999 37.6351C85.4816 38.2415 85.239 38.763 84.9722 39.1996C84.7297 39.6363 84.4386 39.988 84.099 40.2548C83.7594 40.5216 83.3228 40.7278 82.7892 40.8733C82.2798 41.0431 81.6249 41.128 80.8244 41.128C80.1938 41.128 79.5267 41.0189 78.8233 40.8006C78.1441 40.6065 77.562 40.279 77.0768 39.8182C76.616 39.3573 76.3855 38.7388 76.3855 37.9626C76.3855 37.1621 76.6766 36.5193 77.2588 36.0342C77.8409 35.5733 78.6292 35.3429 79.6237 35.3429C80.5212 35.3429 81.2368 35.5491 81.7704 35.9614C82.3283 36.3738 82.6072 36.9923 82.6072 37.817C82.6072 38.3264 82.4375 38.8237 82.0979 39.3088C81.7583 39.7939 81.2246 40.1578 80.497 40.4003C80.6667 40.4246 80.8487 40.4367 81.0427 40.4367C81.261 40.461 81.4308 40.4731 81.5521 40.4731C82.304 40.4731 82.9711 40.2305 83.5532 39.7454C84.1354 39.2845 84.5962 38.5569 84.9358 37.5624L85.3298 36.3691L77.2224 18.2423C76.81 17.3206 76.4098 16.7506 76.0217 16.5323C75.6336 16.3139 75.3061 16.2048 75.0393 16.2048V15.4407C75.9368 15.5135 76.8585 15.5741 77.8045 15.6226C78.7505 15.6469 79.648 15.659 80.497 15.659C81.5642 15.659 82.5102 15.6348 83.3349 15.5863C84.1596 15.5377 84.9358 15.4892 85.6635 15.4407V16.2048C85.2027 16.2048 84.7661 16.229 84.3537 16.2776C83.9413 16.3261 83.6503 16.4716 83.4805 16.7142C83.3349 16.9325 83.3834 17.3327 83.626 17.9149L88.0955 28.6135L90.1024 22.7903C90.6118 21.3107 90.8301 20.0979 90.7573 19.1519C90.6846 18.2059 90.4056 17.4904 89.9205 17.0052C89.4354 16.5201 88.8168 16.2533 88.0649 16.2048V15.4407C88.4287 15.465 88.829 15.4892 89.2656 15.5135C89.7264 15.5377 90.1752 15.562 90.6118 15.5863H91.7397C92.2006 15.5863 92.7099 15.5741 93.2678 15.5499C93.8257 15.5256 94.2502 15.4892 94.5413 15.4407Z" fill="#7DFF9A"/>
<path d="M114.204 30.3219V15.0405C113.379 15.2103 112.482 15.3437 111.511 15.4407C110.541 15.5135 109.498 15.5499 108.382 15.5499C107.655 15.5499 106.903 15.5135 106.127 15.4407V16.2048C106.951 16.2048 107.521 16.4716 107.837 17.0052C108.152 17.5146 108.31 18.3151 108.31 19.4066V29.6306C108.31 30.2855 108.164 30.8798 107.873 31.4134C107.582 31.9228 107.206 32.323 106.745 32.6141C106.284 32.9052 105.775 33.0507 105.217 33.0507C104.732 33.0507 104.344 32.9416 104.053 32.7232C103.762 32.5049 103.555 32.2017 103.434 31.8136C103.313 31.4255 103.252 30.9525 103.252 30.3947V15.0405C102.427 15.2103 101.53 15.3437 100.56 15.4407C99.5895 15.5135 98.5465 15.5499 97.4307 15.5499C96.703 15.5499 95.9511 15.5135 95.1749 15.4407V16.2048C95.9996 16.2048 96.5696 16.4716 96.8849 17.0052C97.2003 17.5146 97.3579 18.3151 97.3579 19.4066V28.6482C97.3579 29.861 97.4428 30.8434 97.6126 31.5953C97.7824 32.323 98.0614 32.9052 98.4495 33.3418C98.7891 33.7784 99.2742 34.1301 99.9048 34.3969C100.56 34.6637 101.421 34.7971 102.488 34.7971C103.774 34.7971 104.914 34.5667 105.908 34.1059C106.927 33.6207 107.727 32.8324 108.31 31.7409V34.688C109.159 34.4939 110.056 34.3605 111.002 34.2878C111.972 34.215 113.015 34.1786 114.131 34.1786C114.883 34.1786 115.635 34.215 116.387 34.2878V33.5237C115.586 33.5237 115.016 33.269 114.677 32.7596C114.362 32.226 114.204 31.4134 114.204 30.3219Z" fill="#7DFF9A"/>
<path fill-rule="evenodd" clip-rule="evenodd" d="M136.226 5.83527V30.2855C136.226 31.377 136.383 32.1896 136.699 32.7232C137.038 33.2326 137.608 33.4873 138.409 33.4873V34.2514C137.657 34.1786 136.905 34.1422 136.153 34.1422C135.061 34.1422 134.031 34.1786 133.06 34.2514C132.09 34.3242 131.18 34.4576 130.331 34.6516V31.7974C129.909 32.741 129.351 33.4619 128.658 33.9603C127.906 34.5182 126.936 34.7971 125.747 34.7971C124.34 34.7971 123.067 34.4454 121.927 33.742C120.811 33.0386 119.926 31.9592 119.271 30.5038C118.64 29.0242 118.325 27.1079 118.325 24.7551C118.325 22.5478 118.664 20.7286 119.343 19.2975C120.047 17.8421 121.005 16.7506 122.218 16.0229C123.455 15.2952 124.862 14.9313 126.438 14.9313C127.506 14.9313 128.427 15.089 129.204 15.4043C129.617 15.5596 129.993 15.7734 130.331 16.0459V10.2014C130.331 9.10985 130.174 8.3094 129.858 7.80002C129.567 7.26638 128.997 6.99956 128.148 6.99956V6.23549C128.925 6.30826 129.677 6.34465 130.404 6.34465C131.52 6.34465 132.563 6.30826 133.533 6.23549C134.504 6.13847 135.401 6.00506 136.226 5.83527ZM129.422 32.2139C129.927 31.7287 130.23 31.1173 130.331 30.3795V16.8616C130.095 16.6458 129.828 16.4754 129.531 16.3503C129.094 16.1563 128.634 16.0593 128.148 16.0593C126.984 16.0593 126.075 16.7869 125.42 18.2423C124.789 19.6734 124.474 21.8807 124.474 24.8642C124.474 26.9503 124.595 28.5997 124.837 29.8125C125.104 31.0011 125.456 31.8379 125.893 32.323C126.353 32.8081 126.863 33.0507 127.421 33.0507C128.173 33.0507 128.84 32.7718 129.422 32.2139Z" fill="#7DFF9A"/>
<path fill-rule="evenodd" clip-rule="evenodd" d="M153.51 3.01617C151.263 4.45887 149.056 5.8765 148.517 5.8765C147.992 5.8765 146.572 5.0786 145.13 4.26795L145.13 4.26795C143.442 3.31931 141.724 2.35322 141.37 2.62789C140.74 3.13727 142.493 6.30467 143.969 8.47536C145.089 10.1206 146.153 11.6783 148.34 11.6705C150.308 11.6634 152.441 9.74932 153.715 8.47538C155.015 7.17594 159.568 0.538435 158.913 0.0290558C158.58 -0.239775 156.021 1.40385 153.51 3.01617Z" fill="#FFAB10"/>
</svg>
